<?xml version="1.0" encoding="UTF-8"?>
<!DOCTYPE svg PUBLIC "-//W3C//DTD SVG 1.1//EN" "http://www.w3.org/Graphics/SVG/1.1/DTD/svg11.dtd">
<!-- Creator: CorelDRAW 2020 (64 Bit) -->
<svg xmlns="http://www.w3.org/2000/svg" xml:space="preserve" width="180mm" height="180mm" version="1.1" style="shape-rendering:geometricPrecision; text-rendering:geometricPrecision; image-rendering:optimizeQuality; fill-rule:evenodd; clip-rule:evenodd"
viewBox="0 0 4311.81 4311.81"
 xmlns:xlink="http://www.w3.org/1999/xlink"
 xmlns:xodm="http://www.corel.com/coreldraw/odm/2003">
 <defs>
  <style type="text/css">
   <![CDATA[
    .fil0 {fill:#FE0000;fill-rule:nonzero}
   ]]>
  </style>
 </defs>
 <g id="Camada_x0020_1">
  <metadata id="CorelCorpID_0Corel-Layer"/>
  <g id="_3066923862928">
   <path class="fil0" d="M4311.81 2155.91c0,-1190.8 -965.11,-2155.91 -2155.91,-2155.91 -1190.8,0 -2155.91,965.11 -2155.91,2155.91 0,1190.8 965.11,2155.91 2155.91,2155.91 12.63,0 25.27,0 37.9,-0.84l0 -1677.57 -463.18 0 0 -539.82 463.18 0 0 -397.5c0,-460.65 281.28,-711.62 692.25,-711.62 197.07,0 366.34,14.32 415.18,21.05l0 481.71 -282.97 -0c-223.17,0 -266.96,106.11 -266.96,261.91l0 343.6 534.77 0 -69.9 539.82 -464.87 0 0 1595.88c901.1,-258.54 1560.51,-1088.06 1560.51,-2072.53l0 0z"/>
  </g>
 </g>
</svg>
