<?xml version="1.0" encoding="UTF-8"?>
<!DOCTYPE svg PUBLIC "-//W3C//DTD SVG 1.1//EN" "http://www.w3.org/Graphics/SVG/1.1/DTD/svg11.dtd">
<!-- Creator: CorelDRAW 2020 (64 Bit) -->
<svg xmlns="http://www.w3.org/2000/svg" xml:space="preserve" width="180.622mm" height="180.622mm" version="1.1" style="shape-rendering:geometricPrecision; text-rendering:geometricPrecision; image-rendering:optimizeQuality; fill-rule:evenodd; clip-rule:evenodd"
viewBox="0 0 21597.09 21597.09"
 xmlns:xlink="http://www.w3.org/1999/xlink"
 xmlns:xodm="http://www.corel.com/coreldraw/odm/2003">
 <defs>
  <style type="text/css">
   <![CDATA[
    .fil0 {fill:#FE0000;fill-rule:nonzero}
   ]]>
  </style>
 </defs>
 <g id="Camada_x0020_1">
  <metadata id="CorelCorpID_0Corel-Layer"/>
  <g id="_3066809333120">
   <g id="_2778434755520">
    <path class="fil0" d="M12865.41 10798.55c0,1141.53 -925.35,2066.92 -2066.92,2066.92 -1141.53,0 -2066.92,-925.35 -2066.92,-2066.92 0,-1141.53 925.35,-2066.92 2066.92,-2066.92 1141.53,0 2066.92,925.35 2066.92,2066.92zm0 0z"/>
    <path class="fil0" d="M15632.31 7141.58c-99.36,-269.21 -257.85,-512.91 -463.85,-712.95 -200.03,-205.94 -443.55,-364.49 -712.95,-463.85 -218.48,-84.84 -546.7,-185.87 -1151.27,-213.39 -653.94,-29.81 -850.08,-36.27 -2505.69,-36.27 -1655.8,0 -1851.86,6.28 -2505.69,36.09 -604.57,27.69 -932.91,128.68 -1151.27,213.52 -269.4,99.36 -513.1,257.85 -712.95,463.85 -205.94,200.03 -364.49,443.55 -463.97,712.95 -84.84,218.48 -185.87,546.88 -213.39,1151.39 -29.81,653.82 -36.27,849.88 -36.27,2505.69 0,1655.61 6.4,1851.74 36.27,2505.69 27.51,604.57 128.55,932.79 213.39,1151.27 99.49,269.4 257.85,512.91 463.85,712.95 200.03,205.94 443.55,364.49 712.95,463.85 218.48,85.01 546.88,186 1151.39,213.52 653.82,29.81 849.7,36.09 2505.5,36.09 1655.99,0 1852.05,-6.28 2505.69,-36.09 604.57,-27.51 932.91,-128.55 1151.39,-213.52 540.79,-208.6 968.19,-636 1176.8,-1176.8 84.84,-218.48 185.87,-546.7 213.52,-1151.27 29.81,-653.94 36.09,-850.08 36.09,-2505.69 0,-1655.8 -6.28,-1851.86 -36.09,-2505.69 -27.51,-604.57 -128.55,-932.91 -213.52,-1151.39l0.06 0 0.01 0.05zm-4833.76 6841.01c-1758.65,0 -3184.23,-1425.46 -3184.23,-3184.05 0,-1758.65 1425.58,-3184.05 3184.23,-3184.05 1758.45,0 3184.05,1425.46 3184.05,3184.05 0,1758.65 -1425.58,3184.05 -3184.05,3184.05zm3309.93 -5749.91c-410.94,0 -744.12,-333.18 -744.12,-744.12 0,-410.94 333.18,-744.12 744.12,-744.12 410.94,0 744.12,333.18 744.12,744.12 -0.19,410.94 -333.18,744.12 -744.12,744.12zm0 0z"/>
    <path class="fil0" d="M10798.55 0c-5962.93,0 -10798.55,4835.56 -10798.55,10798.55 0,5962.93 4835.56,10798.55 10798.55,10798.55 5962.93,0 10798.55,-4835.56 10798.55,-10798.55 0,-5962.93 -4835.56,-10798.55 -10798.55,-10798.55zm6163.33 13354.97c-30,660.1 -134.95,1110.72 -288.17,1505.2 -322.14,832.93 -980.55,1491.36 -1813.48,1813.48 -394.3,153.27 -845.1,258.05 -1505.01,288.17 -661.21,30.18 -872.5,37.39 -2556.42,37.39 -1684.12,0 -1895.21,-7.27 -2556.61,-37.39 -659.91,-30.18 -1110.72,-134.95 -1505.01,-288.17 -413.92,-155.69 -788.59,-399.76 -1098.36,-715.31 -315.36,-309.58 -559.42,-684.45 -715.12,-1098.23 -153.27,-394.3 -258.22,-845.1 -288.17,-1505.01 -30.49,-661.41 -37.57,-872.61 -37.57,-2556.61 0,-1684 7.08,-1895.21 37.39,-2556.42 30,-660.1 134.77,-1110.72 288.03,-1505.2 155.69,-413.74 399.88,-788.59 715.43,-1098.23 309.58,-315.55 684.45,-559.55 1098.23,-715.31 394.48,-153.27 845.1,-258.05 1505.2,-288.17 661.21,-30.18 872.5,-37.39 2556.42,-37.39 1684,0 1895.21,7.27 2556.42,37.57 660.1,30 1110.72,134.77 1505.2,287.85 413.74,155.69 788.59,399.88 1098.36,715.43 315.36,309.77 559.55,684.45 715.12,1098.23 153.4,394.48 258.22,845.1 288.34,1505.2 30.18,661.21 37.26,872.5 37.26,2556.42 0,1684 -7.08,1895.21 -37.39,2556.42l-0.11 0.07zm0 0z"/>
   </g>
  </g>
 </g>
</svg>
