<?xml version="1.0" encoding="UTF-8"?>
<!DOCTYPE svg PUBLIC "-//W3C//DTD SVG 1.1//EN" "http://www.w3.org/Graphics/SVG/1.1/DTD/svg11.dtd">
<!-- Creator: CorelDRAW 2020 (64 Bit) -->
<svg xmlns="http://www.w3.org/2000/svg" xml:space="preserve" width="180.622mm" height="180.622mm" version="1.1" style="shape-rendering:geometricPrecision; text-rendering:geometricPrecision; image-rendering:optimizeQuality; fill-rule:evenodd; clip-rule:evenodd"
viewBox="0 0 5532.17 5532.17"
 xmlns:xlink="http://www.w3.org/1999/xlink"
 xmlns:xodm="http://www.corel.com/coreldraw/odm/2003">
 <defs>
  <style type="text/css">
   <![CDATA[
    .fil0 {fill:#FE0000;fill-rule:nonzero}
   ]]>
  </style>
 </defs>
 <g id="Camada_x0020_1">
  <metadata id="CorelCorpID_0Corel-Layer"/>
  <g id="_3066923586832">
   <g id="_2743942018112">
    <path class="fil0" d="M2766.09 0c-1527.44,0 -2766.09,1238.66 -2766.09,2766.09 0,1527.44 1238.66,2766.09 2766.09,2766.09 1527.44,0 2766.09,-1238.66 2766.09,-2766.09 0,-1527.44 -1238.66,-2766.09 -2766.09,-2766.09zm58.63 4376.58c-0.05,0 0.05,0 0,0l-0.68 0c-277.09,-0.12 -549.36,-69.6 -791.17,-201.45l-877.62 230.15 234.89 -857.65c-144.89,-250.96 -221.13,-535.69 -220.99,-827.39 0.38,-912.52 743.06,-1654.9 1655.57,-1654.9 442.83,0.17 858.53,172.54 1171.08,485.34 312.58,312.84 484.62,728.67 484.45,1170.87 -0.38,912.56 -743.14,1655.02 -1655.53,1655.02l0 0 -0.01 0zm0 0z"/>
    <path class="fil0" d="M2825.27 1344.89c-759.01,0 -1376.3,617.03 -1376.63,1375.49 -0.09,259.91 72.68,513.03 210.4,732.04l32.71 52.04 -139.03 507.63 520.79 -136.58 50.27 29.8c211.25,125.36 453.43,191.66 700.34,191.75l0.55 0c758.42,0 1375.7,-617.07 1376.04,-1375.57 0.12,-367.58 -142.88,-713.17 -402.65,-973.17 -259.79,-259.99 -605.29,-403.29 -972.79,-403.41l0 0 -0.01 0.01zm809.37 1966.89c-34.48,96.57 -199.73,184.74 -279.2,196.65 -71.29,10.63 -161.44,15.06 -260.55,-16.38 -60.1,-19.08 -137.13,-44.53 -235.85,-87.11 -414.94,-179.12 -685.95,-596.81 -706.63,-624.42 -20.68,-27.61 -168.91,-224.24 -168.91,-427.82 0,-203.53 106.87,-303.59 144.77,-344.96 37.95,-41.41 82.77,-51.75 110.33,-51.75 27.57,0 55.16,0.25 79.27,1.44 25.41,1.27 59.51,-9.67 93.07,71 34.48,82.81 117.21,286.33 127.55,307.02 10.34,20.72 17.22,44.86 3.46,72.47 -13.8,27.61 -59.64,87.16 -103.4,141.44 -18.36,22.75 -42.29,43.01 -18.15,84.42 24.1,41.36 107.16,176.81 230.12,286.46 158.02,140.88 291.31,184.53 332.68,205.25 41.32,20.68 65.46,17.22 89.61,-10.34 24.1,-27.61 103.4,-120.75 130.97,-162.16 27.57,-41.41 55.16,-34.48 93.07,-20.68 37.95,13.76 241.3,113.83 282.66,134.51 41.36,20.72 68.92,31.07 79.27,48.33 10.38,17.26 10.38,100.03 -24.1,196.65l-0.01 0 -0.02 -0.02zm0 0z"/>
   </g>
  </g>
 </g>
</svg>
